OpenSim_Sub11_EMGPreOp_GRF.mot
version=1
nRows=34
nColumns=19
inDegrees=no
endheader
time	lFx	lFy	lFz	lCOPx	lCOPy	lCOPz	rFx	rFy	rFz	rCOPx	rCOPy	rCOPz	lMx	lMy	lMz	rMx	rMy	rMz
0	4.65419842	328.01505983	32.68919060	0.73154550	0	-0.63840136	-2.04833246	342.87322133	-22.16653410	0.74520782	0	-0.42043731	0	2.52012388	0	0	-0.42756417	0
0.01000000	5.29076180	327.46783334	32.70124477	0.73291307	0	-0.63780582	-1.44804368	342.71075882	-22.27758635	0.74598955	0	-0.42033251	0	2.59840031	0	0	-0.46011519	-0.00000000
0.02000000	5.56182386	327.20903450	32.70636609	0.73365168	0	-0.63760588	-1.20032840	342.46491774	-22.32056287	0.74641076	0	-0.42028083	0	2.63156799	0	0	-0.49478958	0
0.03000000	5.59884395	327.03208146	32.71454953	0.73401640	0	-0.63762161	-1.16167918	342.27850877	-22.32820597	0.74666225	0	-0.42022293	0	2.64033438	0	0	-0.52092122	-0.00000000
0.04000000	5.55145574	326.88464047	32.72738330	0.73405591	0	-0.63771779	-1.20250745	342.22889251	-22.32191129	0.74692524	0	-0.42016133	0	2.63919455	0	0	-0.54103857	0
0.05000000	5.48897086	326.74252623	32.73109051	0.73393968	0	-0.63782829	-1.27878077	342.29228416	-22.30583889	0.74720034	0	-0.42013164	0	2.62463456	0	0	-0.55833043	0
0.06000000	5.42474281	326.55925333	32.69229283	0.73387039	0	-0.63788042	-1.37353150	342.40613569	-22.30830104	0.74732033	0	-0.42014834	0	2.60132360	0	0	-0.54972007	0.00000000
0.07000000	5.36759785	326.41752426	32.63431081	0.73382385	0	-0.63786362	-1.46905471	342.56657983	-22.30885829	0.74731456	0	-0.42015224	0	2.59411903	0	0	-0.51456495	-0.00000000
0.08000000	5.34561601	326.36320438	32.61086005	0.73375374	0	-0.63780183	-1.55691988	342.77057449	-22.28826375	0.74731002	0	-0.42013044	0	2.60562348	0	0	-0.47543605	0
0.09000000	5.36374280	326.37158617	32.64862602	0.73361889	0	-0.63773148	-1.63890578	342.97786543	-22.27033444	0.74721844	0	-0.42010024	0	2.62085679	0	0	-0.44160249	0
0.10000000	5.38613907	326.44744105	32.69834895	0.73346314	0	-0.63769084	-1.71827996	343.13473005	-22.27365497	0.74708919	0	-0.42008062	0	2.63372170	0	0	-0.42233442	-0.00000000
0.11000000	5.42032234	326.61287466	32.71119813	0.73335503	0	-0.63769974	-1.80138939	343.21645667	-22.29061156	0.74707456	0	-0.42007304	0	2.63541408	0	0	-0.42541839	0
0.12000000	5.46992177	326.85750607	32.70038691	0.73326280	0	-0.63773462	-1.87895667	343.26070702	-22.31485888	0.74713037	0	-0.42005881	0	2.62444641	0	0	-0.44254884	0
0.13000000	5.52646441	327.17955668	32.70499070	0.73313265	0	-0.63775858	-1.93518259	343.23380447	-22.32402823	0.74717826	0	-0.42004791	0	2.63217050	0	0	-0.46385775	0
0.14000000	5.55818219	327.52011796	32.71603174	0.73295766	0	-0.63774986	-1.97539025	343.10783571	-22.32402607	0.74719653	0	-0.42005515	0	2.66237314	0	0	-0.48451678	-0.00000000
0.15000000	5.56729437	327.80035447	32.70238049	0.73276148	0	-0.63769187	-2.01243541	342.93605514	-22.32624421	0.74721552	0	-0.42007473	0	2.70581043	0	0	-0.50489941	-0.00000000
0.16000000	5.58561748	327.99582412	32.67149122	0.73266655	0	-0.63764071	-2.05886436	342.76861864	-22.32664617	0.74720171	0	-0.42008124	0	2.73419930	0	0	-0.51492702	0.00000000
0.17000000	5.61344979	328.06755371	32.65687490	0.73268862	0	-0.63758681	-2.11322380	342.63091766	-22.33100106	0.74709587	0	-0.42007120	0	2.74320954	0	0	-0.51741680	0
0.18000000	5.63381648	328.05778675	32.67773498	0.73262528	0	-0.63751791	-2.17005977	342.51908455	-22.33254764	0.74690700	0	-0.42003776	0	2.73680372	0	0	-0.50870161	0
0.19000000	5.64211537	328.03383609	32.71970533	0.73233828	0	-0.63746133	-2.22447024	342.50372924	-22.32880975	0.74675203	0	-0.41999309	0	2.70926060	0	0	-0.50145733	-0.00000000
0.20000000	5.64724573	328.04243718	32.75971986	0.73208298	0	-0.63739581	-2.26721397	342.62531316	-22.30484570	0.74687779	0	-0.41995419	0	2.67631974	0	0	-0.50866146	-0.00000000
0.21000000	5.65203799	328.07975961	32.78645301	0.73201859	0	-0.63735438	-2.29989350	342.81126644	-22.26196241	0.74706440	0	-0.41992637	0	2.65883369	0	0	-0.51055195	-0.00000000
0.22000000	5.66928753	328.12376260	32.80665437	0.73204779	0	-0.63734485	-2.31864972	343.01067083	-22.23757067	0.74706237	0	-0.41991863	0	2.65066260	0	0	-0.50406984	0
0.23000000	5.68760779	328.14295827	32.81114656	0.73205870	0	-0.63735710	-2.32012565	343.13792064	-22.24257014	0.74689934	0	-0.41995963	0	2.63793266	0	0	-0.49326741	-0.00000000
0.24000000	5.69700225	328.15428541	32.80773772	0.73201080	0	-0.63736781	-2.31190257	343.13494660	-22.25274039	0.74675443	0	-0.42004026	0	2.62779296	0	0	-0.47701661	-0.00000000
0.25000000	5.71302468	328.20009643	32.81174234	0.73193290	0	-0.63735320	-2.28788527	343.07941474	-22.24192397	0.74673815	0	-0.42009040	0	2.63373697	0	0	-0.46035685	-0.00000000
0.26000000	5.77928011	328.32264074	32.82297284	0.73184128	0	-0.63732333	-2.23944620	343.01109774	-22.22061371	0.74679833	0	-0.42011974	0	2.65031921	0	0	-0.44374026	-0.00000000
0.27000000	5.86529433	328.47063842	32.84305806	0.73174388	0	-0.63727442	-2.19019192	342.92112672	-22.19685226	0.74682018	0	-0.42015170	0	2.66195379	0	0	-0.43861347	-0.00000000
0.28000000	5.91593205	328.55218738	32.86161195	0.73164717	0	-0.63722530	-2.15174634	342.80327122	-22.17740159	0.74668656	0	-0.42018037	0	2.66774610	0	0	-0.45144219	-0.00000000
0.29000000	5.93622303	328.60831285	32.86707093	0.73152410	0	-0.63721865	-2.12617822	342.69179125	-22.17346451	0.74648855	0	-0.42021843	0	2.67318378	0	0	-0.47736376	-0.00000000
0.30000000	5.94764898	328.65459479	32.85271921	0.73146493	0	-0.63724936	-2.11869679	342.61395070	-22.18438716	0.74632429	0	-0.42026799	0	2.68019842	0	0	-0.49969710	-0.00000000
0.31000000	5.96276618	328.62057946	32.80259690	0.73149701	0	-0.63728909	-2.13860383	342.56006670	-22.18963691	0.74615430	0	-0.42031301	0	2.68193281	0	0	-0.50696722	0
0.32000000	5.96678820	328.46761074	32.74226060	0.73147063	0	-0.63728247	-2.16371809	342.49701092	-22.17737316	0.74595967	0	-0.42036458	0	2.68031798	0	0	-0.49740866	-0.00000000
0.33000000	5.97905995	328.26097961	32.70927382	0.73138937	0	-0.63724176	-2.18138102	342.48150324	-22.15083983	0.74580320	0	-0.42041377	0	2.68545751	0	0	-0.47671904	-0.00000000
